M48
; DRILL file {KiCad 9.0.0} date 2025-06-03T10:16:44-0500
; FORMAT={-:-/ absolute / metric / decimal}
; #@! TF.CreationDate,2025-06-03T10:16:44-05:00
; #@! TF.GenerationSoftware,Kicad,Pcbnew,9.0.0
; #@! TF.FileFunction,Plated,1,2,PTH
FMAT,2
METRIC
; #@! TA.AperFunction,Plated,PTH,ComponentDrill
T1C0.800
; #@! TA.AperFunction,Plated,PTH,ViaDrill
T2C0.900
; #@! TA.AperFunction,Plated,PTH,ComponentDrill
T3C1.000
%
G90
G05
T1
X15.28Y58.42
X17.78Y58.42
X22.86Y30.48
X22.86Y20.32
X25.4Y22.86
X25.4Y12.7
X27.94Y30.48
X27.94Y20.32
X30.48Y22.86
X30.48Y12.7
X33.02Y50.8
X33.02Y30.48
X33.02Y20.32
X35.52Y50.8
X35.56Y22.86
X35.56Y12.7
X38.1Y30.48
X38.1Y20.32
X40.64Y22.86
X40.64Y12.7
X43.18Y30.48
X43.18Y20.32
X45.72Y22.86
X45.72Y12.7
X48.26Y30.48
X48.26Y20.32
X50.8Y73.66
X50.8Y63.5
X50.8Y22.86
X50.8Y12.7
X53.34Y63.5
X53.34Y30.48
X53.34Y20.32
X55.88Y68.58
X55.88Y22.86
X55.88Y12.7
X58.42Y30.48
X58.42Y20.32
X59.68Y68.58
X60.96Y22.86
X60.96Y12.7
X63.5Y63.5
X63.5Y30.48
X63.5Y20.32
X66.04Y63.5
X66.04Y61.0
X66.04Y22.86
X66.04Y12.7
X68.58Y30.48
X68.58Y20.32
X71.12Y71.12
X71.12Y63.5
X71.12Y22.86
X71.12Y12.7
X73.66Y71.12
X73.66Y63.5
X73.66Y30.48
X73.66Y20.32
X76.2Y71.12
X76.2Y63.5
X76.2Y22.86
X76.2Y12.7
X78.74Y71.12
X78.74Y63.5
X78.74Y30.48
X78.74Y20.32
X81.28Y71.12
X81.28Y63.5
X81.28Y22.86
X81.28Y12.7
X83.82Y71.12
X83.82Y63.5
X83.82Y30.48
X83.82Y20.32
X86.36Y71.12
X86.36Y63.5
X86.36Y22.86
X86.36Y12.7
X88.9Y71.12
X88.9Y63.5
X88.9Y30.48
X88.9Y20.32
X91.44Y71.12
X91.44Y63.5
X91.44Y22.86
X91.44Y12.7
X93.98Y71.12
X93.98Y63.5
X93.98Y30.48
X93.98Y20.32
X96.52Y22.86
X96.52Y12.7
X99.06Y30.48
X99.06Y20.32
X101.6Y22.86
X101.6Y12.7
X104.14Y30.48
X104.14Y20.32
X106.68Y22.86
X106.68Y12.7
X109.22Y30.48
X109.22Y20.32
X111.76Y22.86
X111.76Y12.7
X114.3Y30.48
X114.3Y20.32
X116.84Y22.86
X116.84Y12.7
X119.38Y30.48
X119.38Y20.32
X121.92Y22.86
X121.92Y12.7
X124.46Y30.48
X124.46Y20.32
X127.0Y22.86
X127.0Y12.7
X129.54Y30.48
X129.54Y20.32
X132.08Y22.86
X132.08Y12.7
X134.62Y30.48
X134.62Y20.32
X137.16Y22.86
X137.16Y12.7
X139.7Y30.48
X139.7Y20.32
X142.24Y22.86
X142.24Y12.7
T2
X7.62Y5.08
X10.16Y5.08
X12.7Y63.5
X12.7Y5.08
X15.24Y60.96
X15.24Y5.08
X17.78Y53.34
X17.78Y5.08
X20.32Y5.08
X22.86Y58.42
X22.86Y5.08
X25.4Y55.88
X25.4Y5.08
X27.94Y5.08
X30.48Y5.08
X33.02Y63.5
X33.02Y5.08
X35.56Y60.96
X35.56Y58.42
X35.56Y55.88
X35.56Y53.34
X35.56Y5.08
X38.1Y5.08
X40.64Y5.08
X43.18Y5.08
X45.72Y5.08
X48.26Y5.08
X50.8Y5.08
X53.34Y5.08
X55.88Y5.08
X58.42Y5.08
X60.96Y5.08
X63.5Y5.08
X66.04Y5.08
X68.58Y5.08
X71.12Y5.08
X73.66Y5.08
X76.2Y5.08
X78.74Y5.08
X81.28Y5.08
X83.82Y5.08
X86.36Y5.08
X88.9Y5.08
X91.44Y5.08
X93.98Y5.08
X96.52Y5.08
X99.06Y5.08
X101.6Y5.08
X104.14Y5.08
X106.68Y5.08
X109.22Y5.08
X111.76Y5.08
X114.3Y5.08
X116.84Y5.08
X119.38Y5.08
X121.92Y5.08
X124.46Y5.08
X127.0Y5.08
X129.54Y5.08
X132.08Y5.08
X134.62Y5.08
X137.16Y5.08
X139.7Y5.08
X142.24Y5.08
T3
X7.62Y7.62
X10.16Y7.62
X12.7Y7.62
X15.24Y7.62
X17.78Y7.62
X20.32Y7.62
X22.86Y7.62
X25.4Y7.62
X27.94Y7.62
X30.48Y7.62
X33.02Y45.72
X33.02Y40.64
X33.02Y35.56
X33.02Y7.62
X35.56Y45.72
X35.56Y40.64
X35.56Y35.56
X35.56Y7.62
X38.1Y45.72
X38.1Y40.64
X38.1Y35.56
X38.1Y7.62
X40.64Y45.72
X40.64Y40.64
X40.64Y35.56
X40.64Y7.62
X43.18Y45.72
X43.18Y40.64
X43.18Y35.56
X43.18Y7.62
X45.72Y45.72
X45.72Y40.64
X45.72Y35.56
X45.72Y7.62
X48.26Y45.72
X48.26Y40.64
X48.26Y35.56
X48.26Y7.62
X50.8Y45.72
X50.8Y40.64
X50.8Y35.56
X50.8Y7.62
X53.34Y45.72
X53.34Y40.64
X53.34Y35.56
X53.34Y7.62
X55.88Y45.72
X55.88Y40.64
X55.88Y35.56
X55.88Y7.62
X58.42Y45.72
X58.42Y40.64
X58.42Y35.56
X58.42Y7.62
X60.96Y45.72
X60.96Y40.64
X60.96Y35.56
X60.96Y7.62
X63.5Y45.72
X63.5Y40.64
X63.5Y35.56
X63.5Y7.62
X66.04Y45.72
X66.04Y40.64
X66.04Y35.56
X66.04Y7.62
X68.58Y45.72
X68.58Y40.64
X68.58Y35.56
X68.58Y7.62
X71.12Y45.72
X71.12Y40.64
X71.12Y35.56
X71.12Y7.62
X73.66Y45.72
X73.66Y40.64
X73.66Y35.56
X73.66Y7.62
X76.2Y45.72
X76.2Y40.64
X76.2Y35.56
X76.2Y7.62
X78.74Y45.72
X78.74Y40.64
X78.74Y35.56
X78.74Y7.62
X81.28Y45.72
X81.28Y40.64
X81.28Y35.56
X81.28Y7.62
X83.82Y45.72
X83.82Y40.64
X83.82Y35.56
X83.82Y7.62
X86.36Y45.72
X86.36Y40.64
X86.36Y35.56
X86.36Y7.62
X88.9Y45.72
X88.9Y40.64
X88.9Y35.56
X88.9Y7.62
X91.44Y45.72
X91.44Y40.64
X91.44Y35.56
X91.44Y7.62
X93.98Y45.72
X93.98Y40.64
X93.98Y35.56
X93.98Y7.62
X96.52Y45.72
X96.52Y40.64
X96.52Y35.56
X96.52Y7.62
X99.06Y45.72
X99.06Y40.64
X99.06Y35.56
X99.06Y7.62
X101.6Y45.72
X101.6Y40.64
X101.6Y35.56
X101.6Y7.62
X104.14Y45.72
X104.14Y40.64
X104.14Y35.56
X104.14Y7.62
X106.68Y45.72
X106.68Y40.64
X106.68Y35.56
X106.68Y7.62
X109.22Y45.72
X109.22Y40.64
X109.22Y35.56
X109.22Y7.62
X111.76Y45.72
X111.76Y40.64
X111.76Y35.56
X111.76Y7.62
X114.3Y45.72
X114.3Y40.64
X114.3Y35.56
X114.3Y7.62
X116.84Y45.72
X116.84Y40.64
X116.84Y35.56
X116.84Y7.62
X119.38Y45.72
X119.38Y40.64
X119.38Y35.56
X119.38Y7.62
X121.92Y45.72
X121.92Y40.64
X121.92Y35.56
X121.92Y7.62
X124.46Y45.72
X124.46Y40.64
X124.46Y35.56
X124.46Y7.62
X127.0Y45.72
X127.0Y40.64
X127.0Y35.56
X127.0Y7.62
X129.54Y45.72
X129.54Y40.64
X129.54Y35.56
X129.54Y7.62
X132.08Y45.72
X132.08Y40.64
X132.08Y35.56
X132.08Y7.62
X134.62Y45.72
X134.62Y40.64
X134.62Y35.56
X134.62Y7.62
X137.16Y45.72
X137.16Y40.64
X137.16Y35.56
X137.16Y7.62
X139.7Y45.72
X139.7Y40.64
X139.7Y35.56
X139.7Y7.62
X142.24Y45.72
X142.24Y40.64
X142.24Y35.56
X142.24Y7.62
M30
