%TF.GenerationSoftware,KiCad,Pcbnew,9.0.0*%
%TF.CreationDate,2025-06-03T10:16:40-05:00*%
%TF.ProjectId,TMSHB_CLK,544d5348-425f-4434-9c4b-2e6b69636164,rev?*%
%TF.SameCoordinates,PX48ab840PY8eeaea0*%
%TF.FileFunction,Copper,L2,Bot*%
%TF.FilePolarity,Positive*%
%FSLAX46Y46*%
G04 Gerber Fmt 4.6, Leading zero omitted, Abs format (unit mm)*
G04 Created by KiCad (PCBNEW 9.0.0) date 2025-06-03 10:16:40*
%MOMM*%
%LPD*%
G01*
G04 APERTURE LIST*
G04 Aperture macros list*
%AMRoundRect*
0 Rectangle with rounded corners*
0 $1 Rounding radius*
0 $2 $3 $4 $5 $6 $7 $8 $9 X,Y pos of 4 corners*
0 Add a 4 corners polygon primitive as box body*
4,1,4,$2,$3,$4,$5,$6,$7,$8,$9,$2,$3,0*
0 Add four circle primitives for the rounded corners*
1,1,$1+$1,$2,$3*
1,1,$1+$1,$4,$5*
1,1,$1+$1,$6,$7*
1,1,$1+$1,$8,$9*
0 Add four rect primitives between the rounded corners*
20,1,$1+$1,$2,$3,$4,$5,0*
20,1,$1+$1,$4,$5,$6,$7,0*
20,1,$1+$1,$6,$7,$8,$9,0*
20,1,$1+$1,$8,$9,$2,$3,0*%
G04 Aperture macros list end*
%TA.AperFunction,ComponentPad*%
%ADD10C,1.600000*%
%TD*%
%TA.AperFunction,ComponentPad*%
%ADD11O,1.600000X1.600000*%
%TD*%
%TA.AperFunction,ComponentPad*%
%ADD12R,1.700000X1.700000*%
%TD*%
%TA.AperFunction,ComponentPad*%
%ADD13O,1.700000X1.700000*%
%TD*%
%TA.AperFunction,ComponentPad*%
%ADD14C,1.500000*%
%TD*%
%TA.AperFunction,ComponentPad*%
%ADD15RoundRect,0.250000X0.550000X-0.550000X0.550000X0.550000X-0.550000X0.550000X-0.550000X-0.550000X0*%
%TD*%
%TA.AperFunction,ViaPad*%
%ADD16C,1.800000*%
%TD*%
%TA.AperFunction,Conductor*%
%ADD17C,1.000000*%
%TD*%
G04 APERTURE END LIST*
D10*
%TO.P,R7,1*%
%TO.N,Net-(U2-OSCIN)*%
X50800000Y73660000D03*
D11*
%TO.P,R7,2*%
%TO.N,+5V*%
X50800000Y63500000D03*
%TD*%
D10*
%TO.P,R14,1*%
%TO.N,/DA1*%
X106680000Y12700000D03*
D11*
%TO.P,R14,2*%
%TO.N,Net-(J6-Pin_2)*%
X106680000Y22860000D03*
%TD*%
D10*
%TO.P,R24,1*%
%TO.N,/DA11*%
X132080000Y12700000D03*
D11*
%TO.P,R24,2*%
%TO.N,Net-(J6-Pin_12)*%
X132080000Y22860000D03*
%TD*%
D12*
%TO.P,J13,1,Pin_1*%
%TO.N,+5V*%
X71120000Y40640000D03*
D13*
%TO.P,J13,2,Pin_2*%
X73660000Y40640000D03*
%TO.P,J13,3,Pin_3*%
X76200000Y40640000D03*
%TO.P,J13,4,Pin_4*%
X78740000Y40640000D03*
%TO.P,J13,5,Pin_5*%
X81280000Y40640000D03*
%TO.P,J13,6,Pin_6*%
X83820000Y40640000D03*
%TO.P,J13,7,Pin_7*%
X86360000Y40640000D03*
%TO.P,J13,8,Pin_8*%
X88900000Y40640000D03*
%TD*%
D12*
%TO.P,J5,1,Pin_1*%
%TO.N,-5V*%
X7620000Y7620000D03*
D13*
%TO.P,J5,2,Pin_2*%
%TO.N,-12V*%
X10160000Y7620000D03*
%TO.P,J5,3,Pin_3*%
%TO.N,+12V*%
X12700000Y7620000D03*
%TO.P,J5,4,Pin_4*%
%TO.N,+5V*%
X15240000Y7620000D03*
%TO.P,J5,5,Pin_5*%
%TO.N,GND*%
X17780000Y7620000D03*
%TD*%
D10*
%TO.P,R47,1*%
%TO.N,/{slash}WE*%
X78740000Y20320000D03*
D11*
%TO.P,R47,2*%
%TO.N,Net-(J11-Pin_4)*%
X78740000Y30480000D03*
%TD*%
D10*
%TO.P,R28,1*%
%TO.N,/AD1*%
X33020000Y20320000D03*
D11*
%TO.P,R28,2*%
%TO.N,Net-(J9-Pin_1)*%
X33020000Y30480000D03*
%TD*%
D10*
%TO.P,R29,1*%
%TO.N,/AD2*%
X35560000Y12700000D03*
D11*
%TO.P,R29,2*%
%TO.N,Net-(J9-Pin_2)*%
X35560000Y22860000D03*
%TD*%
D10*
%TO.P,R15,1*%
%TO.N,/DA2*%
X109220000Y20320000D03*
D11*
%TO.P,R15,2*%
%TO.N,Net-(J6-Pin_3)*%
X109220000Y30480000D03*
%TD*%
D10*
%TO.P,R43,1*%
%TO.N,/DA15*%
X142240000Y12700000D03*
D11*
%TO.P,R43,2*%
%TO.N,Net-(J6-Pin_16)*%
X142240000Y22860000D03*
%TD*%
D10*
%TO.P,R56,1*%
%TO.N,/IC3*%
X101600000Y12700000D03*
D11*
%TO.P,R56,2*%
%TO.N,Net-(J12-Pin_5)*%
X101600000Y22860000D03*
%TD*%
D10*
%TO.P,R30,1*%
%TO.N,/AD3*%
X38100000Y20320000D03*
D11*
%TO.P,R30,2*%
%TO.N,Net-(J9-Pin_3)*%
X38100000Y30480000D03*
%TD*%
D12*
%TO.P,J17,1,Pin_1*%
%TO.N,GND*%
X71120000Y45720000D03*
D13*
%TO.P,J17,2,Pin_2*%
X73660000Y45720000D03*
%TO.P,J17,3,Pin_3*%
X76200000Y45720000D03*
%TO.P,J17,4,Pin_4*%
X78740000Y45720000D03*
%TO.P,J17,5,Pin_5*%
X81280000Y45720000D03*
%TO.P,J17,6,Pin_6*%
X83820000Y45720000D03*
%TO.P,J17,7,Pin_7*%
X86360000Y45720000D03*
%TO.P,J17,8,Pin_8*%
X88900000Y45720000D03*
%TD*%
D10*
%TO.P,R25,1*%
%TO.N,/DA12*%
X134620000Y20320000D03*
D11*
%TO.P,R25,2*%
%TO.N,Net-(J6-Pin_13)*%
X134620000Y30480000D03*
%TD*%
D10*
%TO.P,R49,1*%
%TO.N,/WAIT*%
X83820000Y20320000D03*
D11*
%TO.P,R49,2*%
%TO.N,Net-(J11-Pin_6)*%
X83820000Y30480000D03*
%TD*%
D12*
%TO.P,J9,1,Pin_1*%
%TO.N,Net-(J9-Pin_1)*%
X33020000Y35560000D03*
D13*
%TO.P,J9,2,Pin_2*%
%TO.N,Net-(J9-Pin_2)*%
X35560000Y35560000D03*
%TO.P,J9,3,Pin_3*%
%TO.N,Net-(J9-Pin_3)*%
X38100000Y35560000D03*
%TO.P,J9,4,Pin_4*%
%TO.N,Net-(J9-Pin_4)*%
X40640000Y35560000D03*
%TO.P,J9,5,Pin_5*%
%TO.N,Net-(J9-Pin_5)*%
X43180000Y35560000D03*
%TO.P,J9,6,Pin_6*%
%TO.N,Net-(J9-Pin_6)*%
X45720000Y35560000D03*
%TO.P,J9,7,Pin_7*%
%TO.N,Net-(J9-Pin_7)*%
X48260000Y35560000D03*
%TO.P,J9,8,Pin_8*%
%TO.N,Net-(J9-Pin_8)*%
X50800000Y35560000D03*
%TO.P,J9,9,Pin_9*%
%TO.N,Net-(J9-Pin_9)*%
X53340000Y35560000D03*
%TO.P,J9,10,Pin_10*%
%TO.N,Net-(J9-Pin_10)*%
X55880000Y35560000D03*
%TO.P,J9,11,Pin_11*%
%TO.N,Net-(J9-Pin_11)*%
X58420000Y35560000D03*
%TO.P,J9,12,Pin_12*%
%TO.N,Net-(J9-Pin_12)*%
X60960000Y35560000D03*
%TO.P,J9,13,Pin_13*%
%TO.N,Net-(J9-Pin_13)*%
X63500000Y35560000D03*
%TO.P,J9,14,Pin_14*%
%TO.N,Net-(J9-Pin_14)*%
X66040000Y35560000D03*
%TO.P,J9,15,Pin_15*%
%TO.N,Net-(J9-Pin_15)*%
X68580000Y35560000D03*
%TD*%
D10*
%TO.P,R18,1*%
%TO.N,/DA5*%
X116840000Y12700000D03*
D11*
%TO.P,R18,2*%
%TO.N,Net-(J6-Pin_6)*%
X116840000Y22860000D03*
%TD*%
D12*
%TO.P,J16,1,Pin_1*%
%TO.N,GND*%
X33020000Y45720000D03*
D13*
%TO.P,J16,2,Pin_2*%
X35560000Y45720000D03*
%TO.P,J16,3,Pin_3*%
X38100000Y45720000D03*
%TO.P,J16,4,Pin_4*%
X40640000Y45720000D03*
%TO.P,J16,5,Pin_5*%
X43180000Y45720000D03*
%TO.P,J16,6,Pin_6*%
X45720000Y45720000D03*
%TO.P,J16,7,Pin_7*%
X48260000Y45720000D03*
%TO.P,J16,8,Pin_8*%
X50800000Y45720000D03*
%TO.P,J16,9,Pin_9*%
X53340000Y45720000D03*
%TO.P,J16,10,Pin_10*%
X55880000Y45720000D03*
%TO.P,J16,11,Pin_11*%
X58420000Y45720000D03*
%TO.P,J16,12,Pin_12*%
X60960000Y45720000D03*
%TO.P,J16,13,Pin_13*%
X63500000Y45720000D03*
%TO.P,J16,14,Pin_14*%
X66040000Y45720000D03*
%TO.P,J16,15,Pin_15*%
X68580000Y45720000D03*
%TD*%
D12*
%TO.P,J7,1,Pin_1*%
%TO.N,unconnected-(J7-Pin_1-Pad1)*%
X20320000Y7620000D03*
D13*
%TO.P,J7,2,Pin_2*%
%TO.N,PHI3*%
X22860000Y7620000D03*
%TO.P,J7,3,Pin_3*%
%TO.N,PHI4*%
X25400000Y7620000D03*
%TO.P,J7,4,Pin_4*%
%TO.N,PHI1*%
X27940000Y7620000D03*
%TO.P,J7,5,Pin_5*%
%TO.N,PHI2*%
X30480000Y7620000D03*
%TD*%
D12*
%TO.P,J4,1,Pin_1*%
%TO.N,/IRQ*%
X91440000Y7620000D03*
D13*
%TO.P,J4,2,Pin_2*%
%TO.N,/IC0*%
X93980000Y7620000D03*
%TO.P,J4,3,Pin_3*%
%TO.N,/IC1*%
X96520000Y7620000D03*
%TO.P,J4,4,Pin_4*%
%TO.N,/IC2*%
X99060000Y7620000D03*
%TO.P,J4,5,Pin_5*%
%TO.N,/IC3*%
X101600000Y7620000D03*
%TD*%
D10*
%TO.P,R48,1*%
%TO.N,/{slash}HOLD*%
X81280000Y12700000D03*
D11*
%TO.P,R48,2*%
%TO.N,Net-(J11-Pin_5)*%
X81280000Y22860000D03*
%TD*%
D10*
%TO.P,R16,1*%
%TO.N,/DA3*%
X111760000Y12700000D03*
D11*
%TO.P,R16,2*%
%TO.N,Net-(J6-Pin_4)*%
X111760000Y22860000D03*
%TD*%
D10*
%TO.P,R3,1*%
%TO.N,Net-(U2-PHI1)*%
X27940000Y30480000D03*
D11*
%TO.P,R3,2*%
%TO.N,PHI1*%
X27940000Y20320000D03*
%TD*%
D10*
%TO.P,R52,1*%
%TO.N,/IRQ*%
X91440000Y12700000D03*
D11*
%TO.P,R52,2*%
%TO.N,Net-(J12-Pin_1)*%
X91440000Y22860000D03*
%TD*%
D10*
%TO.P,R55,1*%
%TO.N,/IC2*%
X99060000Y20320000D03*
D11*
%TO.P,R55,2*%
%TO.N,Net-(J12-Pin_4)*%
X99060000Y30480000D03*
%TD*%
D12*
%TO.P,J12,1,Pin_1*%
%TO.N,Net-(J12-Pin_1)*%
X91440000Y35560000D03*
D13*
%TO.P,J12,2,Pin_2*%
%TO.N,Net-(J12-Pin_2)*%
X93980000Y35560000D03*
%TO.P,J12,3,Pin_3*%
%TO.N,Net-(J12-Pin_3)*%
X96520000Y35560000D03*
%TO.P,J12,4,Pin_4*%
%TO.N,Net-(J12-Pin_4)*%
X99060000Y35560000D03*
%TO.P,J12,5,Pin_5*%
%TO.N,Net-(J12-Pin_5)*%
X101600000Y35560000D03*
%TD*%
D10*
%TO.P,R44,1*%
%TO.N,/DBIN*%
X71120000Y12700000D03*
D11*
%TO.P,R44,2*%
%TO.N,Net-(J11-Pin_1)*%
X71120000Y22860000D03*
%TD*%
D10*
%TO.P,R37,1*%
%TO.N,/AD10*%
X55880000Y12700000D03*
D11*
%TO.P,R37,2*%
%TO.N,Net-(J9-Pin_10)*%
X55880000Y22860000D03*
%TD*%
D10*
%TO.P,C3,1*%
%TO.N,+12V*%
X33020000Y50800000D03*
%TO.P,C3,2*%
%TO.N,GND*%
X35520000Y50800000D03*
%TD*%
%TO.P,R40,1*%
%TO.N,/AD13*%
X63500000Y20320000D03*
D11*
%TO.P,R40,2*%
%TO.N,Net-(J9-Pin_13)*%
X63500000Y30480000D03*
%TD*%
D10*
%TO.P,R41,1*%
%TO.N,/AD14*%
X66040000Y12700000D03*
D11*
%TO.P,R41,2*%
%TO.N,Net-(J9-Pin_14)*%
X66040000Y22860000D03*
%TD*%
D10*
%TO.P,R26,1*%
%TO.N,/DA13*%
X137160000Y12700000D03*
D11*
%TO.P,R26,2*%
%TO.N,Net-(J6-Pin_14)*%
X137160000Y22860000D03*
%TD*%
D10*
%TO.P,R33,1*%
%TO.N,/AD6*%
X45720000Y12700000D03*
D11*
%TO.P,R33,2*%
%TO.N,Net-(J9-Pin_6)*%
X45720000Y22860000D03*
%TD*%
D10*
%TO.P,R5,1*%
%TO.N,Net-(U2-PHI4)*%
X25400000Y22860000D03*
D11*
%TO.P,R5,2*%
%TO.N,PHI4*%
X25400000Y12700000D03*
%TD*%
D10*
%TO.P,R50,1*%
%TO.N,/HOLDA*%
X86360000Y12700000D03*
D11*
%TO.P,R50,2*%
%TO.N,Net-(J11-Pin_7)*%
X86360000Y22860000D03*
%TD*%
D10*
%TO.P,R27,1*%
%TO.N,/DA14*%
X139700000Y20320000D03*
D11*
%TO.P,R27,2*%
%TO.N,Net-(J6-Pin_15)*%
X139700000Y30480000D03*
%TD*%
D10*
%TO.P,R45,1*%
%TO.N,/{slash}MEMIN*%
X73660000Y20320000D03*
D11*
%TO.P,R45,2*%
%TO.N,Net-(J11-Pin_2)*%
X73660000Y30480000D03*
%TD*%
D10*
%TO.P,R42,1*%
%TO.N,/AD15*%
X68580000Y20320000D03*
D11*
%TO.P,R42,2*%
%TO.N,Net-(J9-Pin_15)*%
X68580000Y30480000D03*
%TD*%
D10*
%TO.P,R39,1*%
%TO.N,/AD12*%
X60960000Y12700000D03*
D11*
%TO.P,R39,2*%
%TO.N,Net-(J9-Pin_12)*%
X60960000Y22860000D03*
%TD*%
D10*
%TO.P,R46,1*%
%TO.N,/READY*%
X76200000Y12700000D03*
D11*
%TO.P,R46,2*%
%TO.N,Net-(J11-Pin_3)*%
X76200000Y22860000D03*
%TD*%
D12*
%TO.P,J8,1,Pin_1*%
%TO.N,+5V*%
X104140000Y40640000D03*
D13*
%TO.P,J8,2,Pin_2*%
X106680000Y40640000D03*
%TO.P,J8,3,Pin_3*%
X109220000Y40640000D03*
%TO.P,J8,4,Pin_4*%
X111760000Y40640000D03*
%TO.P,J8,5,Pin_5*%
X114300000Y40640000D03*
%TO.P,J8,6,Pin_6*%
X116840000Y40640000D03*
%TO.P,J8,7,Pin_7*%
X119380000Y40640000D03*
%TO.P,J8,8,Pin_8*%
X121920000Y40640000D03*
%TO.P,J8,9,Pin_9*%
X124460000Y40640000D03*
%TO.P,J8,10,Pin_10*%
X127000000Y40640000D03*
%TO.P,J8,11,Pin_11*%
X129540000Y40640000D03*
%TO.P,J8,12,Pin_12*%
X132080000Y40640000D03*
%TO.P,J8,13,Pin_13*%
X134620000Y40640000D03*
%TO.P,J8,14,Pin_14*%
X137160000Y40640000D03*
%TO.P,J8,15,Pin_15*%
X139700000Y40640000D03*
%TO.P,J8,16,Pin_16*%
X142240000Y40640000D03*
%TD*%
D12*
%TO.P,J11,1,Pin_1*%
%TO.N,Net-(J11-Pin_1)*%
X71120000Y35560000D03*
D13*
%TO.P,J11,2,Pin_2*%
%TO.N,Net-(J11-Pin_2)*%
X73660000Y35560000D03*
%TO.P,J11,3,Pin_3*%
%TO.N,Net-(J11-Pin_3)*%
X76200000Y35560000D03*
%TO.P,J11,4,Pin_4*%
%TO.N,Net-(J11-Pin_4)*%
X78740000Y35560000D03*
%TO.P,J11,5,Pin_5*%
%TO.N,Net-(J11-Pin_5)*%
X81280000Y35560000D03*
%TO.P,J11,6,Pin_6*%
%TO.N,Net-(J11-Pin_6)*%
X83820000Y35560000D03*
%TO.P,J11,7,Pin_7*%
%TO.N,Net-(J11-Pin_7)*%
X86360000Y35560000D03*
%TO.P,J11,8,Pin_8*%
%TO.N,Net-(J11-Pin_8)*%
X88900000Y35560000D03*
%TD*%
D12*
%TO.P,J14,1,Pin_1*%
%TO.N,+5V*%
X91440000Y40640000D03*
D13*
%TO.P,J14,2,Pin_2*%
X93980000Y40640000D03*
%TO.P,J14,3,Pin_3*%
X96520000Y40640000D03*
%TO.P,J14,4,Pin_4*%
X99060000Y40640000D03*
%TO.P,J14,5,Pin_5*%
X101600000Y40640000D03*
%TD*%
D10*
%TO.P,C4,1*%
%TO.N,+5V*%
X15280000Y58420000D03*
%TO.P,C4,2*%
%TO.N,GND*%
X17780000Y58420000D03*
%TD*%
%TO.P,R13,1*%
%TO.N,/DA0*%
X104140000Y20320000D03*
D11*
%TO.P,R13,2*%
%TO.N,Net-(J6-Pin_1)*%
X104140000Y30480000D03*
%TD*%
D10*
%TO.P,R51,1*%
%TO.N,/{slash}RESET*%
X88900000Y20320000D03*
D11*
%TO.P,R51,2*%
%TO.N,Net-(J11-Pin_8)*%
X88900000Y30480000D03*
%TD*%
D10*
%TO.P,R35,1*%
%TO.N,/AD8*%
X50800000Y12700000D03*
D11*
%TO.P,R35,2*%
%TO.N,Net-(J9-Pin_8)*%
X50800000Y22860000D03*
%TD*%
D12*
%TO.P,J15,1,Pin_1*%
%TO.N,GND*%
X104140000Y45720000D03*
D13*
%TO.P,J15,2,Pin_2*%
X106680000Y45720000D03*
%TO.P,J15,3,Pin_3*%
X109220000Y45720000D03*
%TO.P,J15,4,Pin_4*%
X111760000Y45720000D03*
%TO.P,J15,5,Pin_5*%
X114300000Y45720000D03*
%TO.P,J15,6,Pin_6*%
X116840000Y45720000D03*
%TO.P,J15,7,Pin_7*%
X119380000Y45720000D03*
%TO.P,J15,8,Pin_8*%
X121920000Y45720000D03*
%TO.P,J15,9,Pin_9*%
X124460000Y45720000D03*
%TO.P,J15,10,Pin_10*%
X127000000Y45720000D03*
%TO.P,J15,11,Pin_11*%
X129540000Y45720000D03*
%TO.P,J15,12,Pin_12*%
X132080000Y45720000D03*
%TO.P,J15,13,Pin_13*%
X134620000Y45720000D03*
%TO.P,J15,14,Pin_14*%
X137160000Y45720000D03*
%TO.P,J15,15,Pin_15*%
X139700000Y45720000D03*
%TO.P,J15,16,Pin_16*%
X142240000Y45720000D03*
%TD*%
D12*
%TO.P,J2,1,Pin_1*%
%TO.N,/AD1*%
X33020000Y7620000D03*
D13*
%TO.P,J2,2,Pin_2*%
%TO.N,/AD2*%
X35560000Y7620000D03*
%TO.P,J2,3,Pin_3*%
%TO.N,/AD3*%
X38100000Y7620000D03*
%TO.P,J2,4,Pin_4*%
%TO.N,/AD4*%
X40640000Y7620000D03*
%TO.P,J2,5,Pin_5*%
%TO.N,/AD5*%
X43180000Y7620000D03*
%TO.P,J2,6,Pin_6*%
%TO.N,/AD6*%
X45720000Y7620000D03*
%TO.P,J2,7,Pin_7*%
%TO.N,/AD7*%
X48260000Y7620000D03*
%TO.P,J2,8,Pin_8*%
%TO.N,/AD8*%
X50800000Y7620000D03*
%TO.P,J2,9,Pin_9*%
%TO.N,/AD9*%
X53340000Y7620000D03*
%TO.P,J2,10,Pin_10*%
%TO.N,/AD10*%
X55880000Y7620000D03*
%TO.P,J2,11,Pin_11*%
%TO.N,/AD11*%
X58420000Y7620000D03*
%TO.P,J2,12,Pin_12*%
%TO.N,/AD12*%
X60960000Y7620000D03*
%TO.P,J2,13,Pin_13*%
%TO.N,/AD13*%
X63500000Y7620000D03*
%TO.P,J2,14,Pin_14*%
%TO.N,/AD14*%
X66040000Y7620000D03*
%TO.P,J2,15,Pin_15*%
%TO.N,/AD15*%
X68580000Y7620000D03*
%TD*%
D10*
%TO.P,R53,1*%
%TO.N,/IC0*%
X93980000Y20320000D03*
D11*
%TO.P,R53,2*%
%TO.N,Net-(J12-Pin_2)*%
X93980000Y30480000D03*
%TD*%
D10*
%TO.P,R19,1*%
%TO.N,/DA6*%
X119380000Y20320000D03*
D11*
%TO.P,R19,2*%
%TO.N,Net-(J6-Pin_7)*%
X119380000Y30480000D03*
%TD*%
D10*
%TO.P,R31,1*%
%TO.N,/AD4*%
X40640000Y12700000D03*
D11*
%TO.P,R31,2*%
%TO.N,Net-(J9-Pin_4)*%
X40640000Y22860000D03*
%TD*%
D10*
%TO.P,R34,1*%
%TO.N,/AD7*%
X48260000Y20320000D03*
D11*
%TO.P,R34,2*%
%TO.N,Net-(J9-Pin_7)*%
X48260000Y30480000D03*
%TD*%
D14*
%TO.P,Y1,1,1*%
%TO.N,Net-(U2-XTAL_1)*%
X55880000Y68580000D03*
%TO.P,Y1,2,2*%
%TO.N,Net-(U2-XTAL_2)*%
X59680000Y68580000D03*
%TD*%
D12*
%TO.P,J10,1,Pin_1*%
%TO.N,+5V*%
X33020000Y40640000D03*
D13*
%TO.P,J10,2,Pin_2*%
X35560000Y40640000D03*
%TO.P,J10,3,Pin_3*%
X38100000Y40640000D03*
%TO.P,J10,4,Pin_4*%
X40640000Y40640000D03*
%TO.P,J10,5,Pin_5*%
X43180000Y40640000D03*
%TO.P,J10,6,Pin_6*%
X45720000Y40640000D03*
%TO.P,J10,7,Pin_7*%
X48260000Y40640000D03*
%TO.P,J10,8,Pin_8*%
X50800000Y40640000D03*
%TO.P,J10,9,Pin_9*%
X53340000Y40640000D03*
%TO.P,J10,10,Pin_10*%
X55880000Y40640000D03*
%TO.P,J10,11,Pin_11*%
X58420000Y40640000D03*
%TO.P,J10,12,Pin_12*%
X60960000Y40640000D03*
%TO.P,J10,13,Pin_13*%
X63500000Y40640000D03*
%TO.P,J10,14,Pin_14*%
X66040000Y40640000D03*
%TO.P,J10,15,Pin_15*%
X68580000Y40640000D03*
%TD*%
D10*
%TO.P,R54,1*%
%TO.N,/IC1*%
X96520000Y12700000D03*
D11*
%TO.P,R54,2*%
%TO.N,Net-(J12-Pin_3)*%
X96520000Y22860000D03*
%TD*%
D10*
%TO.P,L1,1,1*%
%TO.N,Net-(U2-Tank_1)*%
X63500000Y63500000D03*
D11*
%TO.P,L1,2,2*%
%TO.N,Net-(U2-Tank_2)*%
X53340000Y63500000D03*
%TD*%
D10*
%TO.P,R6,1*%
%TO.N,PHI3*%
X22860000Y20320000D03*
D11*
%TO.P,R6,2*%
%TO.N,Net-(U2-PHI3)*%
X22860000Y30480000D03*
%TD*%
D10*
%TO.P,R22,1*%
%TO.N,/DA9*%
X127000000Y12700000D03*
D11*
%TO.P,R22,2*%
%TO.N,Net-(J6-Pin_10)*%
X127000000Y22860000D03*
%TD*%
D10*
%TO.P,R32,1*%
%TO.N,/AD5*%
X43180000Y20320000D03*
D11*
%TO.P,R32,2*%
%TO.N,Net-(J9-Pin_5)*%
X43180000Y30480000D03*
%TD*%
D12*
%TO.P,J1,1,Pin_1*%
%TO.N,/DBIN*%
X71120000Y7620000D03*
D13*
%TO.P,J1,2,Pin_2*%
%TO.N,/{slash}MEMIN*%
X73660000Y7620000D03*
%TO.P,J1,3,Pin_3*%
%TO.N,/READY*%
X76200000Y7620000D03*
%TO.P,J1,4,Pin_4*%
%TO.N,/{slash}WE*%
X78740000Y7620000D03*
%TO.P,J1,5,Pin_5*%
%TO.N,/{slash}HOLD*%
X81280000Y7620000D03*
%TO.P,J1,6,Pin_6*%
%TO.N,/WAIT*%
X83820000Y7620000D03*
%TO.P,J1,7,Pin_7*%
%TO.N,/HOLDA*%
X86360000Y7620000D03*
%TO.P,J1,8,Pin_8*%
%TO.N,/{slash}RESET*%
X88900000Y7620000D03*
%TD*%
D15*
%TO.P,U2,1,Tank_1*%
%TO.N,Net-(U2-Tank_1)*%
X71120000Y63500000D03*
D10*
%TO.P,U2,2,Tank_2*%
%TO.N,Net-(U2-Tank_2)*%
X73660000Y63500000D03*
%TO.P,U2,3,GND_1*%
%TO.N,GND*%
X76200000Y63500000D03*
%TO.P,U2,4,FFQ*%
%TO.N,unconnected-(U2-FFQ-Pad4)*%
X78740000Y63500000D03*
%TO.P,U2,5,FFD*%
%TO.N,unconnected-(U2-FFD-Pad5)*%
X81280000Y63500000D03*
%TO.P,U2,6,PHI4_TTL*%
%TO.N,unconnected-(U2-PHI4_TTL-Pad6)*%
X83820000Y63500000D03*
%TO.P,U2,7,PHI3_TTL*%
%TO.N,unconnected-(U2-PHI3_TTL-Pad7)*%
X86360000Y63500000D03*
%TO.P,U2,8,PHI3*%
%TO.N,Net-(U2-PHI3)*%
X88900000Y63500000D03*
%TO.P,U2,9,PHI4*%
%TO.N,Net-(U2-PHI4)*%
X91440000Y63500000D03*
%TO.P,U2,10,GND_2*%
%TO.N,GND*%
X93980000Y63500000D03*
%TO.P,U2,11,PHI2*%
%TO.N,Net-(U2-PHI2)*%
X93980000Y71120000D03*
%TO.P,U2,12,PHI1*%
%TO.N,Net-(U2-PHI1)*%
X91440000Y71120000D03*
%TO.P,U2,13,VDD*%
%TO.N,+12V*%
X88900000Y71120000D03*
%TO.P,U2,14,PHI1_TTL*%
%TO.N,unconnected-(U2-PHI1_TTL-Pad14)*%
X86360000Y71120000D03*
%TO.P,U2,15,PHI2_TTL*%
%TO.N,unconnected-(U2-PHI2_TTL-Pad15)*%
X83820000Y71120000D03*
%TO.P,U2,16,OSCOUT*%
%TO.N,unconnected-(U2-OSCOUT-Pad16)*%
X81280000Y71120000D03*
%TO.P,U2,17,OSCIN*%
%TO.N,Net-(U2-OSCIN)*%
X78740000Y71120000D03*
%TO.P,U2,18,XTAL_1*%
%TO.N,Net-(U2-XTAL_1)*%
X76200000Y71120000D03*
%TO.P,U2,19,XTAL_2*%
%TO.N,Net-(U2-XTAL_2)*%
X73660000Y71120000D03*
%TO.P,U2,20,VCC*%
%TO.N,+5V*%
X71120000Y71120000D03*
%TD*%
%TO.P,R36,1*%
%TO.N,/AD9*%
X53340000Y20320000D03*
D11*
%TO.P,R36,2*%
%TO.N,Net-(J9-Pin_9)*%
X53340000Y30480000D03*
%TD*%
D10*
%TO.P,R4,1*%
%TO.N,Net-(U2-PHI2)*%
X30480000Y22860000D03*
D11*
%TO.P,R4,2*%
%TO.N,PHI2*%
X30480000Y12700000D03*
%TD*%
D10*
%TO.P,R21,1*%
%TO.N,/DA8*%
X124460000Y20320000D03*
D11*
%TO.P,R21,2*%
%TO.N,Net-(J6-Pin_9)*%
X124460000Y30480000D03*
%TD*%
D10*
%TO.P,R23,1*%
%TO.N,/DA10*%
X129540000Y20320000D03*
D11*
%TO.P,R23,2*%
%TO.N,Net-(J6-Pin_11)*%
X129540000Y30480000D03*
%TD*%
D12*
%TO.P,J6,1,Pin_1*%
%TO.N,Net-(J6-Pin_1)*%
X104140000Y35560000D03*
D13*
%TO.P,J6,2,Pin_2*%
%TO.N,Net-(J6-Pin_2)*%
X106680000Y35560000D03*
%TO.P,J6,3,Pin_3*%
%TO.N,Net-(J6-Pin_3)*%
X109220000Y35560000D03*
%TO.P,J6,4,Pin_4*%
%TO.N,Net-(J6-Pin_4)*%
X111760000Y35560000D03*
%TO.P,J6,5,Pin_5*%
%TO.N,Net-(J6-Pin_5)*%
X114300000Y35560000D03*
%TO.P,J6,6,Pin_6*%
%TO.N,Net-(J6-Pin_6)*%
X116840000Y35560000D03*
%TO.P,J6,7,Pin_7*%
%TO.N,Net-(J6-Pin_7)*%
X119380000Y35560000D03*
%TO.P,J6,8,Pin_8*%
%TO.N,Net-(J6-Pin_8)*%
X121920000Y35560000D03*
%TO.P,J6,9,Pin_9*%
%TO.N,Net-(J6-Pin_9)*%
X124460000Y35560000D03*
%TO.P,J6,10,Pin_10*%
%TO.N,Net-(J6-Pin_10)*%
X127000000Y35560000D03*
%TO.P,J6,11,Pin_11*%
%TO.N,Net-(J6-Pin_11)*%
X129540000Y35560000D03*
%TO.P,J6,12,Pin_12*%
%TO.N,Net-(J6-Pin_12)*%
X132080000Y35560000D03*
%TO.P,J6,13,Pin_13*%
%TO.N,Net-(J6-Pin_13)*%
X134620000Y35560000D03*
%TO.P,J6,14,Pin_14*%
%TO.N,Net-(J6-Pin_14)*%
X137160000Y35560000D03*
%TO.P,J6,15,Pin_15*%
%TO.N,Net-(J6-Pin_15)*%
X139700000Y35560000D03*
%TO.P,J6,16,Pin_16*%
%TO.N,Net-(J6-Pin_16)*%
X142240000Y35560000D03*
%TD*%
D10*
%TO.P,R38,1*%
%TO.N,/AD11*%
X58420000Y20320000D03*
D11*
%TO.P,R38,2*%
%TO.N,Net-(J9-Pin_11)*%
X58420000Y30480000D03*
%TD*%
D12*
%TO.P,J18,1,Pin_1*%
%TO.N,GND*%
X91440000Y45720000D03*
D13*
%TO.P,J18,2,Pin_2*%
X93980000Y45720000D03*
%TO.P,J18,3,Pin_3*%
X96520000Y45720000D03*
%TO.P,J18,4,Pin_4*%
X99060000Y45720000D03*
%TO.P,J18,5,Pin_5*%
X101600000Y45720000D03*
%TD*%
D10*
%TO.P,R17,1*%
%TO.N,/DA4*%
X114300000Y20320000D03*
D11*
%TO.P,R17,2*%
%TO.N,Net-(J6-Pin_5)*%
X114300000Y30480000D03*
%TD*%
D12*
%TO.P,J3,1,Pin_1*%
%TO.N,/DA0*%
X104140000Y7620000D03*
D13*
%TO.P,J3,2,Pin_2*%
%TO.N,/DA1*%
X106680000Y7620000D03*
%TO.P,J3,3,Pin_3*%
%TO.N,/DA2*%
X109220000Y7620000D03*
%TO.P,J3,4,Pin_4*%
%TO.N,/DA3*%
X111760000Y7620000D03*
%TO.P,J3,5,Pin_5*%
%TO.N,/DA4*%
X114300000Y7620000D03*
%TO.P,J3,6,Pin_6*%
%TO.N,/DA5*%
X116840000Y7620000D03*
%TO.P,J3,7,Pin_7*%
%TO.N,/DA6*%
X119380000Y7620000D03*
%TO.P,J3,8,Pin_8*%
%TO.N,/DA7*%
X121920000Y7620000D03*
%TO.P,J3,9,Pin_9*%
%TO.N,/DA8*%
X124460000Y7620000D03*
%TO.P,J3,10,Pin_10*%
%TO.N,/DA9*%
X127000000Y7620000D03*
%TO.P,J3,11,Pin_11*%
%TO.N,/DA10*%
X129540000Y7620000D03*
%TO.P,J3,12,Pin_12*%
%TO.N,/DA11*%
X132080000Y7620000D03*
%TO.P,J3,13,Pin_13*%
%TO.N,/DA12*%
X134620000Y7620000D03*
%TO.P,J3,14,Pin_14*%
%TO.N,/DA13*%
X137160000Y7620000D03*
%TO.P,J3,15,Pin_15*%
%TO.N,/DA14*%
X139700000Y7620000D03*
%TO.P,J3,16,Pin_16*%
%TO.N,/DA15*%
X142240000Y7620000D03*
%TD*%
D10*
%TO.P,C1,1*%
%TO.N,Net-(U2-Tank_1)*%
X66040000Y63500000D03*
%TO.P,C1,2*%
%TO.N,Net-(U2-Tank_2)*%
X66040000Y61000000D03*
%TD*%
%TO.P,R20,1*%
%TO.N,/DA7*%
X121920000Y12700000D03*
D11*
%TO.P,R20,2*%
%TO.N,Net-(J6-Pin_8)*%
X121920000Y22860000D03*
%TD*%
D16*
%TO.N,/HOLDA*%
X86360000Y5080000D03*
%TO.N,/{slash}WE*%
X78740000Y5080000D03*
%TO.N,/WAIT*%
X83820000Y5080000D03*
%TO.N,/{slash}MEMIN*%
X73660000Y5080000D03*
%TO.N,/DBIN*%
X71120000Y5080000D03*
%TO.N,/{slash}RESET*%
X88900000Y5080000D03*
%TO.N,/{slash}HOLD*%
X81280000Y5080000D03*
%TO.N,/READY*%
X76200000Y5080000D03*
%TO.N,/AD14*%
X66040000Y5080000D03*
%TO.N,/AD3*%
X38100000Y5080000D03*
%TO.N,/AD2*%
X35560000Y5080000D03*
%TO.N,/AD9*%
X53340000Y5080000D03*
%TO.N,/AD10*%
X55880000Y5080000D03*
%TO.N,/AD13*%
X63500000Y5080000D03*
%TO.N,/AD12*%
X60960000Y5080000D03*
%TO.N,/AD7*%
X48260000Y5080000D03*
%TO.N,/AD15*%
X68580000Y5080000D03*
%TO.N,/AD5*%
X43180000Y5080000D03*
%TO.N,/AD1*%
X33020000Y5080000D03*
%TO.N,/AD6*%
X45720000Y5080000D03*
%TO.N,/AD4*%
X40640000Y5080000D03*
%TO.N,/AD8*%
X50800000Y5080000D03*
%TO.N,/AD11*%
X58420000Y5080000D03*
%TO.N,/DA4*%
X114300000Y5080000D03*
%TO.N,/DA15*%
X142240000Y5080000D03*
%TO.N,/DA2*%
X109220000Y5080000D03*
%TO.N,/DA0*%
X104140000Y5080000D03*
%TO.N,/DA7*%
X121920000Y5080000D03*
%TO.N,/DA3*%
X111760000Y5080000D03*
%TO.N,/DA6*%
X119380000Y5080000D03*
%TO.N,/DA12*%
X134620000Y5080000D03*
%TO.N,/DA14*%
X139700000Y5080000D03*
%TO.N,/DA8*%
X124460000Y5080000D03*
%TO.N,/DA5*%
X116840000Y5080000D03*
%TO.N,/DA10*%
X129540000Y5080000D03*
%TO.N,/DA11*%
X132080000Y5080000D03*
%TO.N,/DA13*%
X137160000Y5080000D03*
%TO.N,/DA9*%
X127000000Y5080000D03*
%TO.N,/DA1*%
X106680000Y5080000D03*
%TO.N,/IRQ*%
X91440000Y5080000D03*
%TO.N,/IC1*%
X96520000Y5080000D03*
%TO.N,/IC3*%
X101600000Y5080000D03*
%TO.N,/IC0*%
X93980000Y5080000D03*
%TO.N,/IC2*%
X99060000Y5080000D03*
%TO.N,+12V*%
X12700000Y63500000D03*
X12700000Y5080000D03*
X33020000Y63500000D03*
%TO.N,-12V*%
X10160000Y5080000D03*
%TO.N,-5V*%
X7620000Y5080000D03*
%TO.N,GND*%
X17780000Y5080000D03*
X17780000Y53340000D03*
X35560000Y53340000D03*
%TO.N,+5V*%
X15240000Y5080000D03*
X35560000Y60960000D03*
X15240000Y60960000D03*
%TO.N,unconnected-(J7-Pin_1-Pad1)*%
X20320000Y5080000D03*
%TO.N,PHI3*%
X22860000Y5080000D03*
%TO.N,PHI4*%
X25400000Y5080000D03*
%TO.N,PHI1*%
X27940000Y5080000D03*
%TO.N,PHI2*%
X30480000Y5080000D03*
%TO.N,Net-(U2-PHI4)*%
X35560000Y55880000D03*
X25400000Y55880000D03*
%TO.N,Net-(U2-PHI3)*%
X35560000Y58420000D03*
X22860000Y58420000D03*
%TD*%
D17*
%TO.N,Net-(U2-Tank_1)*%
X63500000Y63500000D02*
X71120000Y63500000D01*
%TO.N,Net-(U2-Tank_2)*%
X71120000Y60960000D02*
X55880000Y60960000D01*
X55880000Y60960000D02*
G75*
G02*
X53340000Y63500000I0J2540000D01*
G01*
X73660000Y63500000D02*
G75*
G02*
X71120000Y60960000I-2540000J0D01*
G01*
%TO.N,/HOLDA*%
X86360000Y12700000D02*
X86360000Y7620000D01*
X86360000Y5080000D02*
X86360000Y7620000D01*
%TO.N,/{slash}WE*%
X78740000Y7620000D02*
X78740000Y20320000D01*
X78740000Y5080000D02*
X78740000Y7620000D01*
%TO.N,/WAIT*%
X83820000Y7620000D02*
X83820000Y20320000D01*
X83820000Y5080000D02*
X83820000Y7620000D01*
%TO.N,/{slash}MEMIN*%
X73660000Y5080000D02*
X73660000Y7620000D01*
X73660000Y7620000D02*
X73660000Y20320000D01*
%TO.N,/DBIN*%
X71120000Y12700000D02*
X71120000Y7620000D01*
X71120000Y5080000D02*
X71120000Y7620000D01*
%TO.N,/{slash}RESET*%
X88900000Y7620000D02*
X88900000Y20320000D01*
X88900000Y5080000D02*
X88900000Y7620000D01*
%TO.N,/{slash}HOLD*%
X81280000Y5080000D02*
X81280000Y7620000D01*
X81280000Y12700000D02*
X81280000Y7620000D01*
%TO.N,/READY*%
X76200000Y5080000D02*
X76200000Y7620000D01*
X76200000Y12700000D02*
X76200000Y7620000D01*
%TO.N,/AD14*%
X66040000Y5080000D02*
X66040000Y7620000D01*
X66040000Y12700000D02*
X66040000Y7620000D01*
%TO.N,/AD3*%
X38100000Y5080000D02*
X38100000Y7620000D01*
X38100000Y7620000D02*
X38100000Y20320000D01*
%TO.N,/AD2*%
X35560000Y12700000D02*
X35560000Y7620000D01*
X35560000Y5080000D02*
X35560000Y7620000D01*
%TO.N,/AD9*%
X53340000Y7620000D02*
X53340000Y20320000D01*
X53340000Y5080000D02*
X53340000Y7620000D01*
%TO.N,/AD10*%
X55880000Y5080000D02*
X55880000Y7620000D01*
X55880000Y12700000D02*
X55880000Y7620000D01*
%TO.N,/AD13*%
X63500000Y7620000D02*
X63500000Y20320000D01*
X63500000Y5080000D02*
X63500000Y7620000D01*
%TO.N,/AD12*%
X60960000Y12700000D02*
X60960000Y7620000D01*
X60960000Y5080000D02*
X60960000Y7620000D01*
%TO.N,/AD7*%
X48260000Y5080000D02*
X48260000Y7620000D01*
X48260000Y7620000D02*
X48260000Y20320000D01*
%TO.N,/AD15*%
X68580000Y5080000D02*
X68580000Y7620000D01*
X68580000Y7620000D02*
X68580000Y20320000D01*
%TO.N,/AD5*%
X43180000Y5080000D02*
X43180000Y7620000D01*
X43180000Y7620000D02*
X43180000Y20320000D01*
%TO.N,/AD1*%
X33020000Y20320000D02*
X33020000Y7620000D01*
X33020000Y5080000D02*
X33020000Y7620000D01*
%TO.N,/AD6*%
X45720000Y12700000D02*
X45720000Y7620000D01*
X45720000Y5080000D02*
X45720000Y7620000D01*
%TO.N,/AD4*%
X40640000Y12700000D02*
X40640000Y7620000D01*
X40640000Y5080000D02*
X40640000Y7620000D01*
%TO.N,/AD8*%
X50800000Y12700000D02*
X50800000Y7620000D01*
X50800000Y5080000D02*
X50800000Y7620000D01*
%TO.N,/AD11*%
X58420000Y7620000D02*
X58420000Y20320000D01*
X58420000Y5080000D02*
X58420000Y7620000D01*
%TO.N,/DA4*%
X114300000Y5080000D02*
X114300000Y7620000D01*
X114300000Y7620000D02*
X114300000Y20320000D01*
%TO.N,/DA15*%
X142240000Y7620000D02*
X142240000Y12700000D01*
X142240000Y5080000D02*
X142240000Y7620000D01*
%TO.N,/DA2*%
X109220000Y7620000D02*
X109220000Y20320000D01*
X109220000Y5080000D02*
X109220000Y7620000D01*
%TO.N,/DA0*%
X104140000Y7620000D02*
X104140000Y20320000D01*
X104140000Y5080000D02*
X104140000Y7620000D01*
%TO.N,/DA7*%
X121920000Y5080000D02*
X121920000Y7620000D01*
X121920000Y12700000D02*
X121920000Y7620000D01*
%TO.N,/DA3*%
X111760000Y5080000D02*
X111760000Y7620000D01*
X111760000Y12700000D02*
X111760000Y7620000D01*
%TO.N,/DA6*%
X119380000Y5080000D02*
X119380000Y7620000D01*
X119380000Y7620000D02*
X119380000Y20320000D01*
%TO.N,/DA12*%
X134620000Y5080000D02*
X134620000Y7620000D01*
X134620000Y7620000D02*
X134620000Y20320000D01*
%TO.N,/DA14*%
X139700000Y5080000D02*
X139700000Y7620000D01*
X139700000Y7620000D02*
X139700000Y20320000D01*
%TO.N,/DA8*%
X124460000Y5080000D02*
X124460000Y7620000D01*
X124460000Y20320000D02*
X124460000Y7620000D01*
%TO.N,/DA5*%
X116840000Y5080000D02*
X116840000Y7620000D01*
X116840000Y12700000D02*
X116840000Y7620000D01*
%TO.N,/DA10*%
X129540000Y5080000D02*
X129540000Y7620000D01*
X129540000Y7620000D02*
X129540000Y20320000D01*
%TO.N,/DA11*%
X132080000Y5080000D02*
X132080000Y7620000D01*
X132080000Y12700000D02*
X132080000Y7620000D01*
%TO.N,/DA13*%
X137160000Y12700000D02*
X137160000Y7620000D01*
X137160000Y5080000D02*
X137160000Y7620000D01*
%TO.N,/DA9*%
X127000000Y5080000D02*
X127000000Y7620000D01*
X127000000Y7620000D02*
X127000000Y12700000D01*
%TO.N,/DA1*%
X106680000Y12700000D02*
X106680000Y7620000D01*
X106680000Y5080000D02*
X106680000Y7620000D01*
%TO.N,/IRQ*%
X91440000Y12700000D02*
X91440000Y7620000D01*
X91440000Y5080000D02*
X91440000Y7620000D01*
%TO.N,/IC1*%
X96520000Y5080000D02*
X96520000Y7620000D01*
X96520000Y12700000D02*
X96520000Y7620000D01*
%TO.N,/IC3*%
X101600000Y12700000D02*
X101600000Y7620000D01*
X101600000Y5080000D02*
X101600000Y7620000D01*
%TO.N,/IC0*%
X93980000Y5080000D02*
X93980000Y7620000D01*
X93980000Y7620000D02*
X93980000Y20320000D01*
%TO.N,/IC2*%
X99060000Y5080000D02*
X99060000Y7620000D01*
X99060000Y7620000D02*
X99060000Y20320000D01*
%TO.N,+12V*%
X88900000Y76200000D02*
X88900000Y71120000D01*
X33020000Y50800000D02*
X33020000Y63500000D01*
X33020000Y63500000D02*
X33020000Y76200000D01*
X35560000Y78740000D02*
X86360000Y78740000D01*
X12700000Y5080000D02*
X12700000Y7620000D01*
X12700000Y63500000D02*
X12700000Y7620000D01*
X86360000Y78740000D02*
G75*
G02*
X88900000Y76200000I0J-2540000D01*
G01*
X33020000Y76200000D02*
G75*
G02*
X35560000Y78740000I2540000J0D01*
G01*
%TO.N,-12V*%
X10160000Y7620000D02*
X10160000Y5080000D01*
%TO.N,-5V*%
X7620000Y5080000D02*
X7620000Y7620000D01*
%TO.N,GND*%
X17780000Y5080000D02*
X17780000Y7620000D01*
X86360000Y53340000D02*
X45720000Y53340000D01*
X45720000Y53340000D02*
X35560000Y53340000D01*
X93980000Y63500000D02*
X93980000Y60960000D01*
X142240000Y45720000D02*
X33020000Y45720000D01*
X139700000Y86360000D02*
X20320000Y86360000D01*
X35560000Y53340000D02*
X35560000Y50840000D01*
X142240000Y48260000D02*
X142240000Y83820000D01*
X91440000Y66040000D02*
X78740000Y66040000D01*
X17780000Y83820000D02*
X17780000Y53340000D01*
X93980000Y63500000D02*
X93980000Y48260000D01*
X38060000Y53340000D02*
X45720000Y53340000D01*
X17780000Y53340000D02*
X17780000Y7620000D01*
X139700000Y45720000D02*
G75*
G03*
X142240000Y48260000I0J2540000D01*
G01*
X142240000Y83820000D02*
G75*
G03*
X139700000Y86360000I-2540000J0D01*
G01*
X35560000Y50840000D02*
G75*
G02*
X35520000Y50800000I-40000J0D01*
G01*
X93980000Y60960000D02*
G75*
G02*
X86360000Y53340000I-7620000J0D01*
G01*
X96520000Y45720000D02*
G75*
G02*
X93980000Y48260000I0J2540000D01*
G01*
X93980000Y48260000D02*
G75*
G02*
X91440000Y45720000I-2540000J0D01*
G01*
X93980000Y63500000D02*
G75*
G03*
X91440000Y66040000I-2540000J0D01*
G01*
X86360000Y53340000D02*
G75*
G02*
X93980000Y45720000I0J-7620000D01*
G01*
X35520000Y50800000D02*
G75*
G02*
X38060000Y53340000I2540000J0D01*
G01*
X20320000Y86360000D02*
G75*
G03*
X17780000Y83820000I0J-2540000D01*
G01*
X78740000Y66040000D02*
G75*
G03*
X76200000Y63500000I0J-2540000D01*
G01*
%TO.N,+5V*%
X139700000Y88900000D02*
X20320000Y88900000D01*
X35560000Y60960000D02*
X48260000Y60960000D01*
X15240000Y7620000D02*
X15240000Y60960000D01*
X15240000Y83820000D02*
X15240000Y60960000D01*
X53340000Y71120000D02*
X71120000Y71120000D01*
X15240000Y5080000D02*
X15240000Y7620000D01*
X50800000Y63500000D02*
X50800000Y68580000D01*
X144780000Y83820000D02*
X144780000Y43180000D01*
X142240000Y40640000D02*
X33020000Y40640000D01*
X144780000Y43180000D02*
G75*
G02*
X142240000Y40640000I-2540000J0D01*
G01*
X20320000Y88900000D02*
G75*
G03*
X15240000Y83820000I0J-5080000D01*
G01*
X144780000Y83820000D02*
G75*
G03*
X139700000Y88900000I-5080000J0D01*
G01*
X50800000Y68580000D02*
G75*
G02*
X53340000Y71120000I2540000J0D01*
G01*
X48260000Y60960000D02*
G75*
G03*
X50800000Y63500000I0J2540000D01*
G01*
%TO.N,Net-(J6-Pin_16)*%
X142240000Y22860000D02*
X142240000Y35560000D01*
%TO.N,Net-(J6-Pin_7)*%
X119380000Y30480000D02*
X119380000Y35560000D01*
%TO.N,Net-(J6-Pin_12)*%
X132080000Y35560000D02*
X132080000Y22860000D01*
%TO.N,Net-(J6-Pin_9)*%
X124460000Y30480000D02*
X124460000Y35560000D01*
%TO.N,Net-(J6-Pin_3)*%
X109220000Y30480000D02*
X109220000Y35560000D01*
%TO.N,Net-(J6-Pin_1)*%
X104140000Y35560000D02*
X104140000Y30480000D01*
%TO.N,Net-(J6-Pin_10)*%
X127000000Y35560000D02*
X127000000Y22860000D01*
%TO.N,Net-(J6-Pin_14)*%
X137160000Y35560000D02*
X137160000Y22860000D01*
%TO.N,Net-(J6-Pin_15)*%
X139700000Y35560000D02*
X139700000Y30480000D01*
%TO.N,Net-(J6-Pin_2)*%
X106680000Y22860000D02*
X106680000Y35560000D01*
%TO.N,Net-(J6-Pin_6)*%
X116840000Y35560000D02*
X116840000Y22860000D01*
%TO.N,Net-(J6-Pin_13)*%
X134620000Y30480000D02*
X134620000Y35560000D01*
%TO.N,Net-(J6-Pin_8)*%
X121920000Y35560000D02*
X121920000Y22860000D01*
%TO.N,Net-(J6-Pin_11)*%
X129540000Y30480000D02*
X129540000Y35560000D01*
%TO.N,Net-(J6-Pin_5)*%
X114300000Y30480000D02*
X114300000Y35560000D01*
%TO.N,Net-(J6-Pin_4)*%
X111760000Y35560000D02*
X111760000Y22860000D01*
%TO.N,unconnected-(J7-Pin_1-Pad1)*%
X20320000Y5080000D02*
X20320000Y7620000D01*
%TO.N,PHI3*%
X22860000Y5080000D02*
X22860000Y7620000D01*
X22860000Y20320000D02*
X22860000Y7620000D01*
%TO.N,PHI4*%
X25400000Y7620000D02*
X25400000Y12700000D01*
X25400000Y5080000D02*
X25400000Y7620000D01*
%TO.N,PHI1*%
X27940000Y7620000D02*
X27940000Y20320000D01*
X27940000Y7620000D02*
X27940000Y5080000D01*
%TO.N,PHI2*%
X30480000Y7620000D02*
X30480000Y12700000D01*
X30480000Y5080000D02*
X30480000Y7620000D01*
%TO.N,Net-(J9-Pin_14)*%
X66040000Y35560000D02*
X66040000Y22860000D01*
%TO.N,Net-(J9-Pin_6)*%
X45720000Y35560000D02*
X45720000Y22860000D01*
%TO.N,Net-(J9-Pin_4)*%
X40640000Y35560000D02*
X40640000Y22860000D01*
%TO.N,Net-(J9-Pin_3)*%
X38100000Y30480000D02*
X38100000Y35560000D01*
%TO.N,Net-(J9-Pin_13)*%
X63500000Y30480000D02*
X63500000Y35560000D01*
%TO.N,Net-(J9-Pin_15)*%
X68580000Y30480000D02*
X68580000Y35560000D01*
%TO.N,Net-(J9-Pin_11)*%
X58420000Y30480000D02*
X58420000Y35560000D01*
%TO.N,Net-(J9-Pin_10)*%
X55880000Y35560000D02*
X55880000Y22860000D01*
%TO.N,Net-(J9-Pin_2)*%
X35560000Y35560000D02*
X35560000Y22860000D01*
%TO.N,Net-(J9-Pin_8)*%
X50800000Y35560000D02*
X50800000Y22860000D01*
%TO.N,Net-(J9-Pin_7)*%
X48260000Y30480000D02*
X48260000Y35560000D01*
%TO.N,Net-(J9-Pin_12)*%
X60960000Y35560000D02*
X60960000Y22860000D01*
%TO.N,Net-(J9-Pin_9)*%
X53340000Y30480000D02*
X53340000Y35560000D01*
%TO.N,Net-(J9-Pin_1)*%
X33020000Y30480000D02*
X33020000Y35560000D01*
%TO.N,Net-(J9-Pin_5)*%
X43180000Y30480000D02*
X43180000Y35560000D01*
%TO.N,Net-(J11-Pin_8)*%
X88900000Y30480000D02*
X88900000Y35560000D01*
%TO.N,Net-(J11-Pin_4)*%
X78740000Y30480000D02*
X78740000Y35560000D01*
%TO.N,Net-(J11-Pin_5)*%
X81280000Y35560000D02*
X81280000Y22860000D01*
%TO.N,Net-(J11-Pin_2)*%
X73660000Y35560000D02*
X73660000Y30480000D01*
%TO.N,Net-(J11-Pin_7)*%
X86360000Y35560000D02*
X86360000Y22860000D01*
%TO.N,Net-(J11-Pin_1)*%
X71120000Y35560000D02*
X71120000Y22860000D01*
%TO.N,Net-(J11-Pin_6)*%
X83820000Y35560000D02*
X83820000Y30480000D01*
%TO.N,Net-(J11-Pin_3)*%
X76200000Y22860000D02*
X76200000Y35560000D01*
%TO.N,Net-(J12-Pin_5)*%
X101600000Y35560000D02*
X101600000Y22860000D01*
%TO.N,Net-(J12-Pin_1)*%
X91440000Y35560000D02*
X91440000Y22860000D01*
%TO.N,Net-(J12-Pin_4)*%
X99060000Y30480000D02*
X99060000Y35560000D01*
%TO.N,Net-(J12-Pin_3)*%
X96520000Y35560000D02*
X96520000Y22860000D01*
%TO.N,Net-(J12-Pin_2)*%
X93980000Y35560000D02*
X93980000Y30480000D01*
%TO.N,Net-(U2-PHI1)*%
X27940000Y78740000D02*
X27940000Y30480000D01*
X96520000Y71120000D02*
X96520000Y78740000D01*
X91440000Y83820000D02*
X33020000Y83820000D01*
X93980000Y68580000D02*
G75*
G03*
X96520000Y71120000I0J2540000D01*
G01*
X96520000Y78740000D02*
G75*
G03*
X91440000Y83820000I-5080000J0D01*
G01*
X33020000Y83820000D02*
G75*
G03*
X27940000Y78740000I0J-5080000D01*
G01*
X91440000Y71120000D02*
G75*
G03*
X93980000Y68580000I2540000J0D01*
G01*
%TO.N,Net-(U2-PHI2)*%
X30480000Y78740000D02*
X30480000Y22860000D01*
X91440000Y81280000D02*
X33020000Y81280000D01*
X93980000Y71120000D02*
X93980000Y78740000D01*
X33020000Y81280000D02*
G75*
G03*
X30480000Y78740000I0J-2540000D01*
G01*
X93980000Y78740000D02*
G75*
G03*
X91440000Y81280000I-2540000J0D01*
G01*
%TO.N,Net-(U2-PHI4)*%
X35560000Y55880000D02*
X86360000Y55880000D01*
X91440000Y60960000D02*
X91440000Y63500000D01*
X25400000Y22860000D02*
X25400000Y55880000D01*
X86360000Y55880000D02*
G75*
G03*
X91440000Y60960000I0J5080000D01*
G01*
%TO.N,Net-(U2-PHI3)*%
X88900000Y60960000D02*
X88900000Y63500000D01*
X22860000Y30480000D02*
X22860000Y55880000D01*
X22860000Y55880000D02*
X22860000Y58420000D01*
X35560000Y58420000D02*
X86360000Y58420000D01*
X86360000Y58420000D02*
G75*
G03*
X88900000Y60960000I0J2540000D01*
G01*
%TO.N,Net-(U2-OSCIN)*%
X50800000Y73660000D02*
X76200000Y73660000D01*
X76200000Y73660000D02*
G75*
G02*
X78740000Y71120000I0J-2540000D01*
G01*
%TO.N,Net-(U2-XTAL_2)*%
X71120000Y68580000D02*
X59680000Y68580000D01*
X73660000Y71120000D02*
G75*
G02*
X71120000Y68580000I-2540000J0D01*
G01*
%TO.N,Net-(U2-XTAL_1)*%
X58420000Y66040000D02*
X71120000Y66040000D01*
X71120000Y66040000D02*
G75*
G03*
X76200000Y71120000I0J5080000D01*
G01*
X55880000Y68580000D02*
G75*
G03*
X58420000Y66040000I2540000J0D01*
G01*
%TD*%
M02*
